<svg className="logo" xmlns="http://www.w3.org/2000/svg" width="250" height="76" fill="none" viewBox="0 0 250 76">
    <path fill="#9DC75E" d="M42.538 60.305c-.604 1.604-1.992 2.784-3.452 3.682-5.826 3.59-13.431 3.62-19.741.962-1.233-.522-2.48-1.18-3.235-2.29-.44-.653-.677-1.402-.827-2.18-.091-.459-.15-.928-.203-1.387-1.43-12.056-1.726-24.18.024-36.197.349-2.358.87-4.465 2.176-6.46 1.151-1.755-2.2-3.92-.75-9.559 1.775 2.175 2.902 5.156 5.962 5.156.203-.087.421-.164.658-.237 2.635-.807 7.166-.83 8.983.136 1.625.865 5.034-1.962 5.638-4.557 2.055 3.561-1.223 6.866-.184 8.273.88 1.188 1.586 3.14 1.934 4.653 2.839 12.283 3.366 23.832 3.433 36.439.005 1.203.005 2.44-.416 3.566z"/>
    <path fill="#71B738" d="M42.538 60.305c-.604 1.604-1.991 2.784-3.452 3.682-5.826 3.59-13.431 3.62-19.741.962-1.233-.522-2.48-1.18-3.235-2.29-.44-.653-.677-1.402-.827-2.18 5.333 5.18 15.97 1.474 20.806-4.967 4.994-6.765 4.351-27.544-.16-35.918-3.331-6.185-11.619-7.659-12.779-7.799 2.635-.807 7.166-.83 8.983.136 1.625.865 5.034-1.962 5.638-4.557 2.055 3.561-1.223 6.866-.184 8.272.88 1.19 1.586 3.141 1.934 4.654 2.839 12.283 3.366 23.832 3.433 36.439.005 1.203.005 2.44-.416 3.566z"/>
    <path fill="#9DC75E" d="M7.683 15.255c.537-1.512.943-5.378-.542-5.697-1.692-.362-2.258 3.16-2.296 4.711-.822-.12-1.368-.072-2.176.121-.807.193-1.407.391-1.571 1.208-.165.817 1.218 2.15 2.045 2.04-.967-.494-2.113.864-1.659 1.85.455.986 1.79 1.546 3.061 1.61-.164.68-.725 4.894 1.33 8.214 1.537 2.483 5.275 5.016 8.118 4.895l.266-3.31c-1.233-.3-2.655-.59-3.975-2.126-1.653-1.933-1.827-6.422-1.48-8.215 1.118-1.87 2.81-3.141 1.703-4.726-.474-.7-1.49-.845-2.283-.56-.792.285-1.421.898-2.016 1.493-.55.546-1.117 1.454-.57 2.005.503.512 1.363.082 1.934-.353l.111-3.16zM36.132 65.664c-.092 1.74-.15 4.078.14 4.943.484 1.45 3.143 0 4.11.967.967.966-5.076 4.349-6.769 1.933-1.015-1.45-2.205-4.383-2.997-6.495 2.847-.217 2.925-.55 5.516-1.348zM20.621 65.326c.861 1.976 2.133 5.035 2.2 6.04.107 1.522-2.906 1.194-3.433 2.455-.527 1.26 6.349 2.092 6.997-.788.353-1.575.396-4.204.338-6.388-2.267-.246-3.926-.532-6.102-1.32z"/>
    <path fill="#71B738" d="M35.552 74.56c-1.044 0-1.842-.362-2.335-1.058-1.035-1.479-2.234-4.407-3.051-6.6-.054-.141-.04-.3.043-.431.082-.13.218-.208.372-.222 1.983-.155 2.549-.353 3.68-.754.44-.155.991-.348 1.73-.575.15-.048.315-.015.44.082.127.097.194.247.184.406-.13 2.42-.087 4.16.117 4.764.13.387.609.397 1.605.32.841-.064 1.789-.14 2.388.458.237.237.305.56.194.9-.348 1.048-2.626 2.362-4.594 2.652-.275.039-.531.058-.773.058zm-4.255-7.408c.783 2.05 1.823 4.518 2.713 5.79.59.84 1.91.68 2.644.507 1.746-.406 3.157-1.465 3.332-1.87-.31-.232-.953-.184-1.577-.13-.986.076-2.214.173-2.596-.977-.227-.681-.295-2.17-.198-4.426-.402.13-.73.246-1.035.352-1.044.377-1.668.595-3.283.754zM22.449 75.464c-1.45 0-2.848-.348-3.346-.928-.232-.27-.29-.6-.164-.904.324-.778 1.233-1.073 2.035-1.334.948-.304 1.393-.497 1.364-.903-.049-.691-.837-2.837-2.162-5.88-.038-.087-.05-.183-.034-.276.017-.093.06-.179.126-.247.13-.14.339-.188.518-.12 2.113.768 3.737 1.048 5.99 1.294.242.025.426.228.43.47.054 2.024.03 4.793-.352 6.503-.232 1.03-1.093 1.76-2.49 2.107-.6.15-1.262.218-1.915.218zm-2.587-1.522c.315.309 2.026.748 3.79.463.745-.12 2.031-.473 2.254-1.478.266-1.194.387-3.262.338-5.847-1.75-.203-3.152-.445-4.752-.947 1.15 2.706 1.755 4.455 1.808 5.2.082 1.207-1.088 1.584-2.03 1.889-.596.193-1.21.39-1.408.72z"/>
    <path fill="#71B738" d="M37.408 7.519c.997 1.797.557 3.62-.043 5.46-.198.609-.44 1.271-.416 1.923.034.754.585 1.305.919 1.948 1.088 2.097 1.494 4.489 1.953 6.784.508 2.527.928 5.074 1.272 7.63.677 5.054 1.044 10.147 1.233 15.24.096 2.562.15 5.123.174 7.684.024 2.334.43 5.102-1.054 7.093-1.32 1.769-3.554 2.914-5.575 3.678-2.084.787-4.298 1.203-6.523 1.275-2.214.073-4.433-.188-6.575-.744-1.083-.285-2.157-.638-3.186-1.078-.987-.415-2.012-.922-2.732-1.74-.798-.903-1.045-2.12-1.194-3.28-.17-1.31-.305-2.629-.436-3.943-.265-2.677-.469-5.364-.609-8.05-.266-5.282-.26-10.583.097-15.864.184-2.72.46-5.437.841-8.133.329-2.329.817-4.62 2.08-6.644.57-.913.44-1.764.086-2.745-.469-1.31-.952-2.585-1.02-3.991-.053-1.054.087-2.092.343-3.117-.27.073-.536.14-.807.213 1.146 1.425 1.982 3.16 3.452 4.3.667.522 1.441.856 2.282.957.851.102 1.668-.333 2.505-.498 1.876-.367 3.916-.444 5.802-.12.372.062.744.145 1.102.26.329.107.624.3.953.387.686.184 1.416-.034 2.035-.329 1.813-.86 3.424-2.725 3.917-4.677.15-.604-.779-.86-.934-.256-.415 1.652-1.735 3.165-3.22 3.972-.575.31-1.18.517-1.798.251-.634-.27-1.262-.459-1.944-.565-1.73-.27-3.51-.242-5.246-.005-.802.111-1.61.26-2.379.531-.754.266-1.62-.072-2.258-.502-1.566-1.049-2.432-2.957-3.587-4.392-.232-.286-.726-.116-.808.212-.464 1.865-.527 3.774-.01 5.64.175.627.412 1.236.634 1.845.155.425.358.899.353 1.363-.01.667-.61 1.27-.89 1.846-.517 1.048-.884 2.17-1.146 3.31-.575 2.551-.817 5.209-1.059 7.808-.522 5.543-.638 11.124-.44 16.686.102 2.807.28 5.61.527 8.408.121 1.343.252 2.682.402 4.02.135 1.228.213 2.503.566 3.697.662 2.252 2.519 3.368 4.583 4.194 2.137.86 4.395 1.401 6.687 1.629 4.497.449 9.191-.402 13.064-2.789 1.867-1.15 3.544-2.744 3.946-4.991.227-1.266.16-2.566.15-3.847-.01-1.314-.025-2.628-.049-3.943-.097-5.349-.334-10.698-.875-16.018-.532-5.233-1.3-10.49-2.553-15.603-.27-1.097-.643-2.18-1.131-3.2-.206-.437-.446-.859-.716-1.26-.184-.27-.261-.445-.232-.778.058-.715.382-1.426.59-2.102.266-.856.474-1.745.483-2.648.01-1.02-.266-1.991-.759-2.885-.29-.536-1.126-.053-.827.493z"/>
    <path fill="#fff" d="M23.76 29.206c-1.635 0-2.892-.701-3.54-1.972-.754-1.469-.58-3.6.397-4.958.773-1.068 1.924-1.681 3.162-1.681 1.267 0 2.427.657 3.099 1.759.774 1.265 1.233 3.367.41 4.986-.386.759-1.222 1.696-3.011 1.841-.18.02-.348.024-.518.024z"/>
    <path fill="#71B738" d="M23.779 20.841c1.131 0 2.233.56 2.896 1.643 1.33 2.174 1.33 6.161-2.418 6.46-.169.015-.338.02-.498.02-4.114 0-4.457-4.45-2.949-6.543.774-1.063 1.886-1.58 2.969-1.58zm0-.483c-1.315 0-2.539.647-3.36 1.783-1.045 1.445-1.22 3.639-.416 5.209.691 1.353 2.025 2.102 3.756 2.102.174 0 .353-.01.537-.024 1.9-.155 2.795-1.155 3.21-1.972.866-1.7.392-3.9-.42-5.223-.716-1.175-1.953-1.875-3.307-1.875z"/>
    <path fill="#000" d="M25.708 26.287c0 .243-.048.484-.141.708-.093.225-.23.429-.402.6-.172.172-.376.309-.6.402-.225.093-.466.14-.709.14-.243 0-.484-.047-.709-.14-.224-.093-.428-.23-.6-.401-.172-.172-.309-.376-.402-.6-.093-.225-.14-.466-.14-.71 0-.49.194-.96.542-1.308.347-.347.818-.542 1.309-.542s.962.195 1.31.542c.347.347.542.818.542 1.309zM20.708 18.542c.17-.121.344-.227.532-.314.024-.01.049-.02.073-.034-.058.024-.058.024-.01.005.039-.015.073-.03.111-.04.097-.033.198-.062.3-.091.102-.024.203-.044.305-.063.13-.024-.107.01.024-.005l.155-.014c.207-.015.415-.005.618.02.252.028.494-.247.484-.484-.015-.29-.213-.45-.484-.484-.899-.111-1.861.13-2.596.663-.203.145-.324.425-.174.662.135.208.445.334.662.179zM31.974 19.556l.179.014c.01 0 .097.01.034.005-.063-.01.024.005.034.005.12.02.237.043.357.077.112.03.223.063.33.107.023.01.047.019.076.029.121.048-.053-.025.015.004.053.03.111.053.164.078.102.053.204.11.3.169.053.034.102.067.15.101.024.015.044.034.068.049.038.029.034.029 0 0 .188.159.358.323.517.512.16.198.517.178.682 0 .193-.208.17-.474 0-.682-.706-.865-1.799-1.372-2.906-1.43-.251-.014-.493.232-.483.483.01.27.207.464.483.479z"/>
    <path fill="#71B738" d="M8.031 15.352c.396-1.15.556-2.455.493-3.668-.043-.865-.222-2.15-1.204-2.455-2.335-.72-2.794 3.639-2.838 5.04l.363-.362c-1.277-.17-3.796-.058-4.096 1.595C.537 16.675 2.011 18.067 3.143 18c.319-.02.541-.522.183-.677-1.189-.502-2.47.653-2.286 1.9.227 1.54 2.195 2.145 3.505 2.232-.116-.155-.232-.305-.348-.46-.624 2.711-.111 6.04 1.315 8.409.89 1.469 2.234 2.672 3.675 3.59 1.421.904 3.094 1.614 4.81 1.57.208-.005.348-.164.363-.362.087-1.102.179-2.203.266-3.31.014-.155-.12-.314-.266-.348-1.006-.242-1.997-.503-2.848-1.126-.86-.623-1.446-1.464-1.803-2.455-.624-1.749-.793-3.72-.648-5.566.039-.469.116-.778.387-1.18.353-.521.744-1.01 1.092-1.531.465-.7.866-1.522.61-2.378-.261-.879-.992-1.45-1.896-1.531-1.063-.097-1.982.493-2.736 1.179-.677.618-1.838 1.691-1.359 2.735.517 1.126 1.866.57 2.596.034.373-.276.01-.904-.367-.629-.353.261-.9.682-1.35.474-.647-.295.078-1.189.368-1.498.677-.72 1.552-1.585 2.606-1.585 1.045 0 1.741.947 1.388 1.938-.31.87-1.01 1.594-1.523 2.348-.217.319-.41.59-.469.967-.043.3-.072.604-.092.903-.043.75-.024 1.503.039 2.247.13 1.517.41 3.131 1.199 4.46 1.015 1.71 2.766 2.44 4.608 2.885-.087-.116-.18-.232-.266-.348-.087 1.102-.179 2.203-.266 3.31l.363-.362c-1.591.043-3.124-.633-4.444-1.47-1.392-.884-2.688-2.058-3.515-3.498-.836-1.46-1.218-3.146-1.305-4.817-.049-.938-.049-1.943.164-2.866.053-.242-.111-.444-.348-.459-.914-.063-2.04-.353-2.592-1.16-.435-.638.097-2.01 1.01-1.623.064-.227.122-.45.185-.677-.779.049-2.031-1.106-1.581-1.913.232-.416.783-.522 1.208-.624.701-.169 1.369-.203 2.08-.106.198.024.357-.188.362-.362.029-.938.17-1.89.454-2.784.175-.55.702-1.962 1.538-1.522.701.367.629 1.774.61 2.416-.03.938-.165 1.895-.475 2.784-.164.449.537.637.687.198z"/>
    <path fill="#000" d="M34.812 35.145c-.101 0-.198-.068-.232-.17-.082-.26-.27-.478-.556-.642-.028-.016-.052-.037-.071-.062-.02-.025-.033-.054-.042-.084-.008-.031-.01-.063-.005-.094.004-.032.015-.062.03-.09.069-.115.214-.154.33-.086.493.285.691.657.773.919.039.125-.029.26-.16.304-.019.005-.043.005-.067.005zM20.017 36.952h-.01c-.063-.002-.123-.03-.166-.076-.044-.046-.067-.107-.066-.17 0-.03.03-.726.701-1.233.107-.082.257-.058.339.048.082.106.058.256-.049.339-.478.362-.507.846-.507.865-.005.126-.111.227-.242.227z"/>
    <path fill="#fff" d="M31.186 28.838c-1.219 0-2.162-.522-2.65-1.474-.56-1.097-.435-2.681.295-3.691.576-.798 1.441-1.257 2.364-1.257.953 0 1.818.493 2.326 1.315.575.942.919 2.508.3 3.71-.29.571-.919 1.272-2.258 1.383-.126.01-.256.014-.377.014z"/>
    <path fill="#71B738" d="M31.2 22.653c.827 0 1.635.41 2.118 1.203.972 1.59.972 4.504-1.77 4.726-.125.01-.246.015-.362.015-3.012 0-3.264-3.252-2.157-4.784.561-.783 1.374-1.16 2.171-1.16zm0-.483c-1.005 0-1.938.493-2.562 1.358-.793 1.097-.924 2.754-.315 3.943.532 1.039 1.548 1.609 2.863 1.609.13 0 .266-.005.401-.015 1.45-.116 2.132-.884 2.451-1.512.658-1.29.3-2.948-.309-3.948-.546-.899-1.494-1.435-2.529-1.435z"/>
    <path fill="#000" d="M32.608 26.635c0 .359-.143.703-.397.956-.254.254-.598.397-.957.397-.36 0-.704-.143-.958-.396-.253-.254-.396-.598-.396-.957 0-.36.143-.703.396-.957.254-.254.599-.396.958-.396s.703.142.957.396.397.598.397.957zM26.747 32.008s.334-.213.576-.15c.242.063.454.726-.15.91-.604.183-.667-.484-.425-.76zM28.967 32.008s.333-.213.575-.15c.242.063.455.726-.15.91-.604.183-.667-.484-.425-.76z"/>
    <path fill="#fff" d="M30.616 37.58s.522 1.328 1.29 1.208c.764-.121.04-1.933.04-1.933l-1.33.725z"/>
    <path fill="#E8451E" d="M39.255 59.977c-.043 0-.082-.005-.125-.015-.078-.022-.15-.062-.209-.118-.059-.055-.103-.124-.13-.2l-5.478-17.242c-.029-.089-.03-.184-.006-.275.025-.09.076-.17.146-.232L47.636 29.33c.106-.092.246-.135.386-.116.14.02.266.102.339.218l8.785 13.689c.126.198.092.46-.077.614L39.58 59.84c-.087.087-.208.136-.325.136zM34.33 42.412l5.154 16.212L56.11 43.306l-8.254-12.878L34.33 42.412z"/>
    <path fill="#EE7122" d="M33.85 41.639l5.478 17.231L56.74 43.01l-8.78-13.688L33.85 41.639z"/>
    <path fill="#fff" d="M35.223 42.359c0 .241 4.917 14.989 4.917 14.989l2.82.565-5.237-14.738-2.5-.816z"/>
    <path fill="#EE7122" d="M33.555 41.885l14.181-12.563 3.225.318 8.055 14.497-15.79 14.496L37.5 43.17l-3.946-1.285z"/>
    <path fill="#E8451E" d="M39.091 42.446c-.126 0-.251-.049-.343-.145-.045-.045-.08-.099-.104-.158-.024-.059-.035-.122-.035-.185.001-.063.015-.126.04-.184.026-.059.063-.111.108-.155l11.039-10.79c.045-.045.099-.08.157-.104.06-.023.122-.035.186-.034.063 0 .126.014.184.04.058.025.11.062.155.108.188.193.183.498-.01.681L39.43 42.31c-.092.092-.213.136-.339.136z"/>
    <path fill="#E8451E" d="M43.443 59.117c-.039 0-.078-.005-.111-.015-.078-.019-.15-.056-.208-.11-.06-.052-.104-.12-.131-.194L37.35 43.557l-3.727-1.218c-.165-.053-.29-.193-.324-.362-.034-.17.024-.343.154-.46l14.182-12.563c.101-.087.237-.13.367-.12l3.225.323c.16.015.3.107.372.247L59.66 43.9c.107.193.068.44-.096.59L43.767 58.986c-.087.087-.204.13-.324.13zm-8.718-17.43l3.148 1.03c.14.043.251.154.304.29l5.474 14.785L58.634 44.04l-7.75-13.94-2.761-.276-13.398 11.863z"/>
    <path fill="#9DC75E" d="M42.437 33.583c1.915 3.823 2.113 4.219 4.729 10.544-.735.566-4.714 1.266-4.178 2.025.271.381 3.066.57 3.955.623.972 3.29 2.553 5.465 3.544 4.939.992-.527.416-2.793.199-3.296.343.628 2.306 2.701 3.495 1.45 1.06-1.117-.667-2.528-1.189-3.165.44.604 3.1 1.319 3.23 0 .13-1.32-1.847-1.846-4.618-4.151-1.992-1.658-5.178-9.674-10.39-14.086.59 2.102 1.223 5.117 1.223 5.117z"/>
    <path fill="#71B738" d="M42.123 33.42c1.716 3.425 3.225 6.914 4.69 10.456.053-.135.111-.27.164-.41-.672.477-1.648.627-2.417.883-.576.194-1.64.43-1.925 1.049-.633 1.377 3.646 1.348 4.303 1.387-.116-.087-.232-.179-.348-.266.392 1.295.885 2.605 1.635 3.745.406.614 1 1.425 1.793 1.527 1.881.237 1.417-2.832 1.011-3.822-.222.091-.44.188-.662.28.623 1.073 2.306 2.542 3.626 1.855.75-.39 1.044-1.227.759-2.005-.295-.802-.972-1.367-1.504-2-.304-.358-.807.154-.512.512.71.865 3.205 1.401 3.757.12.667-1.54-1.731-2.681-2.684-3.329-.865-.594-1.798-1.188-2.475-2.005-.489-.59-.895-1.252-1.296-1.904-1.112-1.797-2.157-3.639-3.327-5.407-1.494-2.266-3.167-4.46-5.24-6.233-.267-.228-.712-.015-.605.352.474 1.692.865 3.407 1.223 5.122.097.455.793.261.701-.193-.358-1.715-.754-3.43-1.223-5.122-.203.116-.406.237-.605.353 3.225 2.764 5.435 6.465 7.591 10.07.726 1.213 1.427 2.493 2.355 3.566 1.209 1.397 2.998 2.121 4.38 3.31.43.372 1.006 1.237.078 1.401-.624.111-1.692-.11-2.113-.623l-.512.512c.377.445.817.836 1.126 1.33.348.55.435 1.381-.372 1.584-.924.232-2.074-.918-2.495-1.638-.198-.343-.822-.111-.662.28.203.498.788 3.392-.421 2.842-.61-.276-1.035-1.03-1.35-1.58-.555-.972-.947-2.025-1.27-3.098-.024-.075-.07-.14-.132-.188-.063-.048-.138-.075-.217-.078-.822-.048-1.648-.106-2.47-.217-.358-.049-.74-.198-1.093-.223-.039-.004-.111-.067-.14-.067.058-.005.062.169.043.169.015 0 .208-.16.227-.174 1.16-.715 2.722-.667 3.84-1.46.12-.081.231-.255.164-.41-1.49-3.6-3.022-7.147-4.763-10.63-.217-.407-.841-.04-.633.376z"/>
    <path fill="#fff" d="M22.759 37.739s-.383 1.32.159 1.653c.725.444 1.291-1.208 1.291-1.208l-1.45-.445z"/>
    <path fill="#000" d="M26.81 38.643c-3.399 0-6.164-1.919-6.29-2.006-.02-.013-.036-.03-.049-.05-.013-.02-.021-.043-.026-.066-.004-.024-.003-.047.002-.07.006-.024.016-.046.03-.065.013-.02.03-.036.05-.049.02-.013.043-.021.066-.025.023-.004.047-.004.07.002.024.005.046.015.065.029.034.024 3.254 2.251 6.89 1.899 3.636-.353 6.382-3.412 6.411-3.446.068-.072.179-.082.256-.014.078.067.083.179.015.256-.116.13-2.872 3.199-6.643 3.561-.29.034-.571.044-.847.044z"/>
    <path fill="#fff" d="M23.213 26.287c0 .105-.042.206-.116.28-.075.075-.175.117-.28.117-.106 0-.207-.042-.281-.117-.074-.074-.116-.175-.116-.28 0-.105.042-.206.116-.28.074-.075.175-.116.28-.116.106 0 .206.041.28.116.075.074.117.175.117.28zM31.07 26.683c0 .105-.042.206-.116.28-.075.075-.175.117-.28.117-.106 0-.207-.042-.281-.116-.074-.075-.116-.175-.116-.28 0-.106.042-.207.116-.281.074-.074.175-.116.28-.116.106 0 .206.042.28.116.075.074.117.175.117.28z"/>
    <path fill="#F4981B" d="M31.23 14.202L49.5 17.613 35.48 5.61 17.106 2.14 31.23 14.203z"/>
    <path fill="#E8451E" d="M21.38 3.363l5.71 3.59s10.73.397 14.012 8.79c3.607.546 8.699 1.764 8.699 1.764L35.779 5.504 21.38 3.364z"/>
    <path fill="#DB0D15" d="M49.931 18.068c-.106 0-.212-.034-.3-.107L35.219 6.572 17.285 2.465c-.073-.017-.142-.05-.2-.098-.057-.048-.103-.109-.133-.178-.03-.068-.045-.142-.042-.217.004-.075.024-.148.06-.213l.547-.98c.102-.184.31-.276.513-.242l18.15 3.445c.083.014.16.053.223.106l14.384 12.206c.179.155.223.411.102.614l-.547.913c-.072.121-.188.203-.328.227-.025.015-.054.02-.083.02zm-31.804-16.4l17.415 3.986c.073.014.136.048.194.092L49.8 16.86l.053-.092L35.876 4.91 18.194 1.556l-.067.111z"/>
    <path fill="#E8451E" d="M17.928.725L36.08 4.171l14.384 12.206-.546.913L35.422 5.833 17.377 1.706l.551-.98z"/>
    <path fill="#DB0D15" d="M49.8 17.996c-.028 0-.057-.005-.086-.01l-18.272-3.411c-.083-.017-.161-.053-.227-.107L17.092 2.402c-.082-.068-.138-.162-.161-.266-.023-.104-.01-.212.035-.309.097-.198.31-.309.527-.265l18.378 3.47c.082.014.16.052.222.105L50.115 17.14c.164.14.218.377.121.576-.077.174-.251.28-.435.28zm-18.053-4.35l16.371 3.06L35.562 5.959 19.098 2.847l12.649 10.8z"/>
    <path fill="#E29811" d="M50.25 25.287l-1.692.077-.043-.966c-.02-.47.338-.86.807-.885.47-.02.86.338.885.807l.043.967zM50.275 25.427l-1.693.077-1.015 9.48s.638.735 2.33.658c1.693-.077 2.258-.87 2.258-.87l-1.88-9.345z"/>
    <path fill="#F4981B" d="M20.322 11.375s7.209 7.06 8.074 7.847c2.64.831 11.464 2.764 11.464 2.764l1.247-6.243s-1.673-4.01-6.363-6.625c-4.167-2.155-8.103-2.28-9.94-2.049-.643.59-4.482 4.306-4.482 4.306z"/>
    <path fill="#DB0D15" d="M48.578 25.625c-.131 0-.237-.102-.242-.232l-.044-.966c-.029-.6.44-1.107 1.035-1.136.61-.03 1.107.44 1.136 1.034l.044.966c.005.136-.097.247-.232.252l-1.693.077c0 .005 0 .005-.004.005zm.797-1.846h-.029c-.333.015-.59.3-.575.633l.034.725 1.209-.053-.034-.725c-.015-.329-.28-.58-.605-.58z"/>
    <path fill="#DB0D15" d="M49.65 35.893c-1.6 0-2.238-.715-2.267-.749-.021-.025-.037-.054-.047-.086-.01-.031-.014-.065-.01-.097l1.015-9.481c.014-.12.11-.213.227-.218l1.692-.077c.116-.014.223.077.247.193l1.88 9.346c.015.067 0 .135-.038.188-.024.039-.658.89-2.447.971-.082.005-.169.01-.251.01zm-1.831-1c.198.16.826.57 2.064.512 1.238-.058 1.828-.522 2.011-.7l-1.818-9.027-1.276.058-.981 9.157z"/>
    <path fill="#DB0D15" d="M51.266 35.613c-.121 0-.223-.087-.237-.208l-1.402-9.92c-.005-.032-.003-.064.005-.095.008-.03.022-.06.041-.085.02-.025.044-.046.072-.062.027-.015.058-.025.09-.029.135-.02.256.073.27.208l1.403 9.92c.004.032.003.064-.005.095-.008.03-.022.06-.042.085-.02.025-.044.046-.071.062-.028.015-.059.025-.09.029h-.034z"/>
    <path fill="#DB0D15" d="M49.893 35.888c-.131 0-.237-.101-.242-.232l-.47-10.234c-.004-.135.098-.247.233-.251.135-.01.246.096.251.232l.47 10.234c.004.135-.097.246-.233.251h-.01z"/>
    <path fill="#DB0D15" d="M48.5 35.739h-.01c-.064-.003-.124-.031-.167-.078-.044-.047-.067-.11-.065-.174l.48-10.065c.004-.135.12-.237.25-.232.136.005.237.12.233.251l-.479 10.066c-.005.13-.111.232-.242.232zM49.337 23.779c-.13 0-.237-.102-.242-.232l-.276-5.992c-.005-.135.097-.246.232-.251.136-.005.247.097.252.232l.275 5.992c.005.135-.096.246-.232.251h-.01z"/>
    <path fill="#E8451E" d="M34.798 9.283L28.754 19.43l10.637 2.416 1.712-6.103s-3.646-5.252-6.305-6.46z"/>
    <path fill="#DB0D15" d="M39.86 22.47c-.034 0-.068-.005-.102-.01-.362-.078-8.872-1.952-11.507-2.779-.066-.02-.127-.055-.179-.101-.86-.783-7.794-7.572-8.084-7.857-.092-.092-.145-.218-.145-.348 0-.13.053-.256.145-.348.155-.15 3.854-3.726 4.487-4.31.072-.068.17-.111.266-.126.827-.101 5.207-.488 10.221 2.102 4.796 2.672 6.518 6.697 6.59 6.867.039.086.049.188.03.28l-1.248 6.243c-.024.126-.102.237-.208.31-.082.047-.174.076-.266.076zm-11.217-3.678c2.335.715 8.988 2.208 10.84 2.62l1.117-5.606c-.329-.691-2.08-4.025-6.097-6.263-4.492-2.319-8.423-2.12-9.491-2.01-.711.667-3.09 2.967-3.999 3.847 1.422 1.386 6.643 6.494 7.63 7.412z"/>
    <path fill="#E8451E" d="M72.124 23.576c.005-.246.02-.6.039-1.053.005-.111.005-.227 0-.348-.005-.116-.005-.232 0-.348l.135-1.88c.044-.976.13-1.962.27-2.952.136-.99.3-1.967.494-2.929.15-.773.324-1.464.517-2.078.199-.613.48-1.256.847-1.932.26-.484.556-.856.89-1.117.763-.613 1.701-.918 2.799-.918.797 0 1.73.174 2.794.517s1.915.778 2.548 1.31c.058.053.107.092.15.12.044.025.092.063.15.102l1.252 1.285c-.014-.014.063.083.233.3.038.053.072.102.106.14.034.044.077.092.12.145.218.295.499.7.837 1.218.343.517.638.889.895 1.121l.295.232c.11.072.236.111.372.111.237 0 .45-.193.638-.58.189-.386.334-.681.44-.88.073-.14.14-.284.198-.425l.189-.449c.329-.73.667-1.392 1.025-1.995.353-.6.832-1.19 1.426-1.764.938-.899 2.021-1.474 3.25-1.73 1.039-.213 1.938-.15 2.697.183.034.015.063.034.102.049.034.014.072.034.106.048.14.077.208.116.198.111l.716.517c.28.28.474.503.585.672.276.406.493.826.653 1.251.159.43.314.88.454 1.353.17.575.329 1.378.474 2.412.145 1.029.232 1.865.266 2.498.01.275.034.556.073.85.038.29.058.575.063.846 0 .391.019.783.062 1.179.044.391.063.788.063 1.184l.063 1.203c.058.396.077.797.063 1.203-.015.406 0 .802.039 1.18.014.168.019.371.014.603-.005.232-.01.435-.01.61 0 1.222-.033 2.758-.106 4.614-.072 1.856-.537 3.213-1.392 4.069-.653.647-1.591.889-2.829.72-1.233-.17-2.161-.658-2.78-1.465-.6-.782-.9-1.792-.909-3.024-.01-1.233.01-2.32.058-3.252.039-.783.16-2.04.368-3.774.207-1.735.227-2.919.058-3.562-.131-.483-.46-.58-.977-.3-.213.117-.464.305-.76.566-.294.261-.526.478-.695.648l-.233.212c-.01.01-.019.015-.024.015l-.014.014-.01.01-1.508 1.29c-.049.039-.18.126-.387.27-.982.677-1.871.982-2.66.919-.788-.063-1.648-.493-2.586-1.286-.348-.285-.745-.647-1.195-1.082-.45-.435-.822-.822-1.121-1.155-.15-.164-.363-.372-.643-.628s-.527-.387-.745-.387c-.372 0-.517.484-.44 1.445.077.962.12 1.542.14 1.745l.198 1.942c.01.092.02.184.025.275.005.097.014.175.024.237l.145 1.484c.082 1.145.092 2.401.024 3.769-.068 1.367-.362 2.517-.88 3.46-.126.222-.314.478-.566.773-.251.295-.483.502-.696.628-.744.45-1.523.657-2.33.618-.808-.038-1.523-.372-2.142-1l-.406-.473-.334-.498c-.058-.102-.106-.198-.14-.295l-.363-.903c-.251-.745-.44-1.585-.556-2.523-.116-.951-.19-1.907-.222-2.865v-2.426h.02zM84.45 12.525c-.102-.377-.32-.73-.653-1.058-.334-.329-.634-.629-.904-.9-.518-.502-1.257-1-2.215-1.497-.962-.498-1.837-.706-2.63-.633-.353.034-.851.164-1.484.396-.634.232-1.001.416-1.103.556-.26.338-.179.507.247.507.068 0 .304-.106.71-.319.407-.212.779-.372 1.122-.478 1.064-.31 2.157-.145 3.278.502 1.122.648 2.046 1.31 2.766 1.996l.866.928zm-7.35 21.45c.363-.073.711-.261 1.045-.556.333-.295.575-.556.735-.783.348-.54.618-1.304.807-2.29.063-.348.16-1.368.28-3.054.126-1.687.102-2.605-.067-2.745-.247-.203-.411-.154-.493.14-.025.068-.034.194-.03.372l.02.397c.02 1.053.005 2.44-.058 4.16-.058 1.72-.513 2.938-1.363 3.653l-.876.706zm17.842-2.624c-.199-.522-.32-1.295-.368-2.324-.034-.638-.024-1.324.02-2.054.043-.73.101-1.42.164-2.078 0-.072.01-.188.024-.343.014-.154.02-.266.01-.328-.053-.271-.199-.339-.435-.208-.136.072-.208.241-.208.507s-.005.483-.01.657c-.034.72-.053 1.421-.068 2.107-.014.686.02 1.382.102 2.097.101.962.3 1.73.594 2.3.358.72.842 1.184 1.446 1.402-.657-.633-1.073-1.213-1.271-1.735zm4.927-20.512c-.474-2.083-1.432-3.286-2.872-3.605-.165-.034-.436-.063-.813-.097-.377-.034-.624.005-.735.102-.237.227-.203.4.102.517.145.058.391.062.74.01.352-.054.744.033 1.174.26.43.227.87.686 1.31 1.382.446.696.832 1.812 1.156 3.359.063.3.15.811.252 1.536.101.725.203 1.18.295 1.363.072-1.13-.131-2.74-.61-4.828zM115.581 33.25c-.86-.02-1.644-.126-2.349-.319-.808-.208-1.49-.459-2.046-.759-.556-.3-1.165-.705-1.832-1.222-.189-.14-.44-.377-.75-.7-.309-.325-.536-.59-.686-.798-.208-.27-.416-.546-.629-.831-.212-.285-.396-.59-.556-.918-.179-.358-.343-.672-.483-.943-.14-.27-.29-.628-.435-1.068-.174-.507-.3-.874-.368-1.106-.068-.232-.159-.623-.266-1.18-.14-.676-.227-1.241-.251-1.7-.024-.46-.039-1.03-.039-1.715 0-.75.097-1.595.285-2.528.189-.932.445-1.725.769-2.363.102-.202.271-.526.508-.976l.604-.889c.189-.27.484-.613.885-1.024.401-.416.716-.71.948-.894l1.755-1.223c1.436-.85 3.104-1.41 5.004-1.672.353-.048.812-.077 1.368-.082.556-.005 1.021.01 1.383.053.247.04.469.063.663.083.193.019.406.048.647.091 1.601.3 3.018.87 4.246 1.711.938.647 1.731 1.517 2.378 2.595.648 1.077 1.142 2.17 1.465 3.261.3 1.03.498 1.914.595 2.658.097.74.14 1.667.14 2.784 0 .739-.116 1.575-.348 2.512-.232.938-.512 1.73-.841 2.387-.222.454-.401.788-.532 1-.106.16-.203.315-.295.46-.092.15-.188.294-.3.434l-.691.841c-.222.285-.469.546-.745.783-.275.237-.546.46-.817.677-.019.014-.034.024-.043.033-.01.01-.02.015-.034.034 0 .005 0 .01-.01.01l-.009.005c-.237.203-.527.396-.866.59-.338.193-.643.357-.914.487-1.793.9-3.737 1.373-5.836 1.426h-.672v-.005zm-8.393-17.41c.628-1.402 1.431-2.503 2.412-3.315l.977-.826c.174-.15.343-.29.503-.426.16-.135.319-.275.479-.425-.426.184-.895.483-1.412.899-.518.415-.943.792-1.277 1.13l-.58.605c-.546.609-1.025 1.329-1.446 2.155-.942 1.87-1.281 3.793-1.025 5.774.262 1.981.75 3.92 1.475 5.823.053.145.165.45.329.913.164.469.28.735.338.807.116.155.252.184.407.092.154-.092.198-.242.135-.45-.048-.125-.106-.27-.174-.425-.068-.154-.126-.304-.174-.44-.445-1.12-.875-2.333-1.291-3.633-.416-1.305-.624-2.638-.624-4.016.005-1.43.319-2.846.948-4.242zm7.407 6.364c.305.821.667 1.57 1.078 2.252l.938 1.236c.334.339.774.672 1.315.996.542.324 1.045.217 1.499-.329l.078-.096c.12-.174.236-.42.343-.74.396-1.188.416-2.865.063-5.035s-.827-3.846-1.412-5.035l-.469-.744-.16-.198c-.121-.126-.275-.246-.459-.358-.585-.348-1.117-.304-1.591.126-.474.435-.827.918-1.068 1.46-.261.603-.426 1.193-.503 1.777-.077.585-.116 1.228-.116 1.929.005 1.024.159 1.937.464 2.759zm12.3-.338c0 1.246-.27 2.522-.822 3.831-.884 2.093-2.258 3.711-4.134 4.852l-.981.594c-.479.29-.769.483-.87.58.565-.15 1.223-.464 1.972-.952.75-.488 1.349-.913 1.794-1.285l1.078-1.126c1.417-1.769 2.21-3.557 2.374-5.359.165-1.802.058-3.779-.319-5.939-.024-.14-.063-.362-.106-.667-.044-.304-.116-.483-.208-.546-.237-.154-.397-.106-.474.14-.034.097.01.406.121.933s.179.85.198.981c.247 1.397.373 2.716.377 3.963zM131.305 21.948c.005-.17.019-.377.039-.619.004-.043.009-.256.009-.633 0-.126.005-.222.02-.29.014-.067.024-.154.029-.266.014-.59.053-1.164.106-1.71.058-.551.121-1.116.193-1.696.112-.928.286-1.943.523-3.04.237-1.097.565-2.058.976-2.88.329-.647.663-1.145 1.001-1.483.242-.232.464-.425.667-.57.598-.438 1.33-.654 2.07-.61.764.04 1.46.223 2.103.557.44.227.909.57 1.407 1.034.498.463.899.884 1.204 1.27l.556.682c-.034-.044.014.014.135.164.039.053.078.111.121.174l.532.706c.048.067.092.125.126.174.038.048.077.101.125.164l1.03 1.46c.252.376.711.99 1.373 1.84.663.855 1.18 1.28 1.557 1.28.319 0 .518-.396.6-1.183.082-.788.126-1.305.13-1.542l.039-.807c0-.101.005-.164.015-.193.009-.029.019-.092.033-.188v-.43c.025-.247.049-.508.063-.774.015-.265.044-.531.078-.787.092-.619.203-1.194.343-1.72.14-.527.406-1 .803-1.411l.459-.387c1.073-.696 2.137-.662 3.186.101.411.3.711.691.895 1.17.183.478.319.961.406 1.454.068.445.116.725.135.85.044.31.092.764.155 1.359.063.594.092 1.039.092 1.333 0 .121.005.208.014.266.01.058.02.126.024.208l.175 4.223c-.01 1.769-.034 3.513-.063 5.229-.034 1.715-.203 3.42-.518 5.117-.217 1.193-.546 2.16-.991 2.894-.343.57-.754 1.005-1.238 1.3-.483.295-1.092.343-1.842.135-.222-.058-.425-.14-.609-.241-.184-.102-.367-.203-.546-.305-.208-.106-.46-.275-.755-.507-.295-.232-.527-.435-.691-.609L146.53 31.1l-.101-.102c-.019-.02-.053-.063-.102-.125-.043-.049-.077-.083-.106-.112-.029-.024-.063-.062-.102-.11l-.56-.716c-.237-.333-.484-.662-.73-.986-.247-.323-.474-.667-.682-1.02-.063-.096-.121-.183-.174-.255-.053-.078-.107-.165-.16-.266l-1.252-2.204c-.334-.666-.672-1.328-1.025-1.995-.353-.667-.672-1.344-.977-2.03l-.077-.135c-.02-.034-.044-.077-.073-.135l-.275-.58c-.107-.194-.155-.29-.15-.276l-.3-.555c-.425-.725-.749-.996-.981-.807-.233.183-.344.667-.344 1.45 0 1.565.247 3.527.74 5.885.493 2.358.551 4.175.169 5.44-.135.474-.319.861-.546 1.156-.605.797-1.494 1.145-2.679 1.034-1.179-.106-2.146-.686-2.901-1.74-.764-1.048-1.257-2.45-1.489-4.204-.232-1.759-.348-3.329-.348-4.711v-1.053zm.677.792c-.02.88-.02 1.517.005 1.928.067 1.411.28 2.774.643 4.083.358 1.31 1.03 2.47 2.006 3.47.049.053.092.096.131.13.038.034.082.078.13.121l.518.517c.183.213.353.247.498.102.15-.14.13-.31-.058-.508-.194-.208-.358-.362-.479-.473-.126-.107-.305-.295-.542-.56-.178-.185-.261-.271-.246-.262-.337-.425-.65-.869-.938-1.329-.237-.396-.464-.952-.672-1.672-.382-1.256-.59-2.464-.629-3.624-.038-1.155-.092-2.411-.159-3.754-.116.343-.189.956-.208 1.831zm12.063-6.523c-.242-.382-.406-.643-.503-.783-.449-.681-.86-1.3-1.228-1.85-.367-.552-.812-1.15-1.324-1.798-.078-.102-.17-.208-.271-.324-.16-.174-.305-.343-.445-.503-.135-.16-.285-.319-.445-.478-.246-.222-.469-.416-.667-.58-.953-.72-1.77-.995-2.456-.826-.687.169-1.417.584-2.195 1.251-.097.078-.208.184-.334.31-.111.154-.102.294.029.425.13.13.29.116.479-.044.053-.048.101-.096.14-.145.039-.048.092-.106.155-.164.236-.193.522-.425.851-.691.328-.266.715-.41 1.155-.435.648-.034 1.272.198 1.862.691.589.493 1.015.87 1.281 1.14l2.195 2.76c.174.236.348.478.522.715.169.241.343.478.518.715.106.145.29.387.546.73.261.343.445.56.556.647-.039-.125-.179-.382-.421-.763zm7.533 16.361c.242-.145.44-.27.595-.381.522-.387.875-1.059 1.054-2.015.179-.957.314-1.769.396-2.436.112-.85.208-1.74.295-2.672.083-.928.16-1.831.232-2.701.01-.165.044-.479.097-.947.053-.469.034-.744-.063-.836-.106-.102-.232-.116-.372-.039-.097.044-.145.16-.15.358l-.159 2.788c-.049.788-.136 2-.257 3.643-.125 1.643-.29 2.793-.493 3.46-.159.498-.401.909-.73 1.237-.232.232-.454.406-.672.517-.218.111-.367.213-.464.31.213-.049.445-.146.691-.286zM178.432 24.74c-.015.687-.097 1.44-.237 2.262-.034.14-.073.304-.121.483s-.092.338-.13.474c-.218.696-.46 1.237-.735 1.619-.276.381-.61.811-1.011 1.29l-.372.348c-.43.41-.991.778-1.688 1.097-.696.319-1.32.57-1.876.758-.793.266-1.61.44-2.446.527-.837.087-1.683.13-2.534.13-2.093 0-4.056-.502-5.884-1.512-.058-.034-.106-.058-.145-.082l-.14-.082c-.518-.3-1.011-.662-1.485-1.088-.08-.063-.152-.138-.212-.222-.049-.068-.111-.145-.189-.222-.696-.73-.938-1.546-.725-2.455.213-.908.745-1.643 1.591-2.194.522-.348 1.078-.502 1.663-.459.585.044 1.17.165 1.765.363.633.222 1.339.555 2.117 1.005.779.45 1.523.811 2.239 1.087.977.391 1.823.483 2.538.275.716-.207 1.229-.536 1.552-.985.32-.45.411-.938.271-1.46-.14-.521-.575-.903-1.305-1.145-.295-.096-.73-.179-1.311-.251-.58-.073-1.02-.116-1.334-.13-2.137-.102-3.834-.406-5.101-.914-.135-.048-.314-.126-.532-.232-.213-.096-.304-.135-.275-.125-1.05-.551-1.949-1.257-2.703-2.127-.3-.348-.522-.647-.658-.898-.14-.252-.3-.575-.493-.972-.251-.517-.411-1.034-.474-1.546s-.096-1.053-.096-1.623c0-.561.106-1.14.324-1.75.217-.604.444-1.082.681-1.43.692-1.024 1.562-1.904 2.601-2.638.054-.04.107-.068.16-.097.053-.03.111-.063.174-.111.44-.285 1.015-.566 1.731-.841.798-.319 1.552-.507 2.258-.57.706-.063 1.494-.097 2.36-.097 1.02 0 2.233.213 3.635.638 1.403.425 2.495 1.02 3.274 1.788l.435.386c.324.387.624.841.904 1.363s.276 1.049-.014 1.57c-.353.629-.992.996-1.905 1.107-.919.106-1.693.053-2.326-.164-.596-.19-1.166-.453-1.697-.783-.082-.048-.169-.092-.252-.14-.082-.048-.174-.097-.261-.155-.623-.377-1.237-.657-1.847-.845-.609-.189-1.252-.082-1.929.323-.242.155-.512.382-.812.682-.3.3-.45.618-.45.952 0 .623.493 1.096 1.485 1.42.986.324 1.726.542 2.214.658.624.164 1.378.352 2.268.57.662.169 1.233.319 1.711.444.484.126 1.03.29 1.644.483.343.121.687.261 1.03.42.556.276 1.001.552 1.339.827l.348.324c.16.179.271.3.329.362.063.063.165.208.305.45.164.294.304.623.42.98.213.692.329 1.48.358 2.364v.517h-.019zm-8.195 7.684c-1.485.275-3.375.16-5.672-.363-1.257-.275-2.33-.768-3.21-1.474-.368-.294-.687-.608-.948-.937-.261-.328-.513-.628-.75-.894-.116-.12-.251-.16-.406-.116-.154.044-.222.16-.203.338.015.189.339.59.967 1.194.629.604 1.078.995 1.349 1.17 1.03.705 2.278 1.15 3.743 1.348 1.465.193 2.833.246 4.109.15 1.098-.078 1.789-.175 2.075-.276.28-.106.865-.266 1.75-.483-.387-.049-1.32.067-2.804.343zm-5.962-22.595c.425-.271 1.083-.46 1.982-.57 1.485-.184 2.853-.131 4.1.164 1.059.25 2.05.73 2.984 1.425l1.523 1.237c.058.048.106.097.145.14.038.044.092.097.154.14.136.112.276.14.421.087.145-.053.203-.174.174-.362-.034-.164-.401-.502-1.102-1.02-.706-.517-1.151-.835-1.349-.961-1.04-.657-2.108-1.073-3.206-1.252-1.344-.222-2.712-.193-4.11.087-1.136.237-2.132.725-2.983 1.46.421-.111.841-.305 1.267-.575zm1.654 7.745l3.075.672c1.484.343 2.809.691 3.964 1.049.745.232 1.354.478 1.833.734.478.256.914.619 1.315 1.083.566.662.928 1.541 1.093 2.638.019.174.038.367.048.575.01.208.048.382.111.527l.049-.778c.043-.744-.092-1.435-.402-2.068-.309-.633-.628-1.14-.962-1.523-.745-.84-2.171-1.541-4.279-2.097-2.108-.555-3.713-.971-4.825-1.242l-1.016-.246c-.169-.039-.353-.063-.546-.072-.193-.01-.28.101-.261.343.014.16.28.294.803.405zM181.879 8.954c.571-.464 1.228-.802 1.978-1.024 1.387-.397 2.78-.585 4.182-.561 1.402.024 2.814.034 4.231.029l2.151.101c.319.049.653.078 1.006.097.353.015.701.048 1.049.097 1.112.16 2.258.415 3.452.763 1.19.353 2.06 1.073 2.616 2.17.324.657.484 1.464.484 2.42 0 .958-.281 1.721-.846 2.282-.518.507-1.088.763-1.712.768-.624.005-1.243-.02-1.862-.077-.618-.058-1.213-.04-1.774.053-.561.091-1.04.473-1.431 1.145-.353.604-.605 1.46-.759 2.57-.15 1.112-.271 2.025-.363 2.74-.034.228-.053.47-.068.716-.014.25-.033.502-.067.749l-.126 1.435c-.014.57-.111 1.546-.28 2.928-.174 1.382-.305 2.32-.402 2.812-.154.735-.435 1.513-.841 2.34-.406.825-1.064 1.236-1.968 1.236-.706 0-1.291-.27-1.745-.817-.455-.546-.798-1.11-1.025-1.696-.223-.55-.387-1.251-.498-2.106-.117-.822-.19-1.65-.218-2.48-.034-.898-.048-1.73-.043-2.488 0-.14.009-.251.024-.319.014-.072.024-.179.024-.319 0-.106 0-.212-.005-.319 0-.106-.005-.212-.005-.323l.049-1.237c0-.435.014-.856.048-1.266.034-.411.048-.827.048-1.257 0-.15.005-.26.02-.333.014-.073.024-.179.029-.31 0-.1-.005-.207-.01-.323-.005-.111-.005-.223.01-.32.024-.332.038-.695.038-1.081v-1.122c0-.807-.111-1.275-.333-1.4-.223-.127-.556-.209-1.001-.247-.305-.02-.522-.034-.643-.034s-.348-.039-.682-.111c-.957-.198-1.794-.614-2.509-1.262-.716-.642-1.074-1.507-1.074-2.59 0-.894.286-1.565.851-2.029zm7.021 22.808c-.242-.551-.426-1.204-.551-1.957-.233-1.315-.305-2.967-.213-4.953.092-1.986.164-3.692.232-5.113.005-.217.024-.56.058-1.034.034-.473-.121-.638-.474-.497-.121.048-.188.323-.198.83-.024.919-.063 2.035-.111 3.34-.049 1.304-.039 2.628.024 3.967.063 1.338.217 2.61.459 3.803.242 1.198.643 2.145 1.204 2.841-.043-.27-.189-.676-.43-1.227zm3.882-23.175c.126.048.832.087 2.113.12 1.281.034 2.452.199 3.51.498.658.184 1.272.46 1.843.817.575.357.996.836 1.271 1.435.092.203.174.416.247.647.072.232.145.45.212.653.049-.585-.082-1.15-.386-1.691-.305-.542-.648-.962-1.025-1.266-.15-.121-.329-.247-.542-.382-.599-.358-1.267-.628-2.002-.807-.734-.179-1.46-.31-2.17-.401-.237-.034-.808-.092-1.712-.184-.904-.092-1.407-.087-1.509.01-.261.251-.212.435.15.55zM225.825 30.558c-.208.339-.416.585-.624.74-.45.348-.986.657-1.62.918-.744.333-1.663.614-2.751.846-1.088.232-2.04.42-2.848.565-.667.116-1.262.198-1.789.246-.527.049-1.112.097-1.764.15-.585.053-1.238.063-1.954.034-.715-.029-1.32-.126-1.818-.3-1.131-.377-1.943-1.14-2.437-2.3-.493-1.16-.846-2.276-1.058-3.339l-.445-2.522c-.078-.435-.16-1.02-.232-1.754-.078-.74-.141-1.343-.189-1.817-.053-.58-.101-1.184-.145-1.807-.043-.624-.087-1.237-.131-1.837l-.125-3.827c.034-.85.063-1.913.096-3.184.034-1.27.46-2.174 1.287-2.71.314-.204.676-.358 1.092-.474.416-.116.822-.208 1.204-.271 1.344-.213 2.843-.41 4.497-.6 1.653-.188 3.172-.246 4.545-.178.904.048 1.658.102 2.263.155.604.058 1.324.26 2.161.623.58.261 1.107.7 1.571 1.334.102.154.165.265.198.333.295.638.431 1.252.407 1.832-.034.517-.179.87-.44 1.048-.262.184-.59.338-.982.474-.696.236-1.881.4-3.544.483-1.668.082-3.099.31-4.298.671-.063.02-.131.04-.203.059l-.213.058c-.063.019-.126.048-.189.077-.063.029-.125.053-.188.067-.397.14-.75.343-1.054.595-.363.304-.668.705-.904 1.198-.237.493-.165.923.212 1.29.261.261.624.363 1.088.314.469-.048.856-.106 1.161-.164 1.025-.203 2.079-.4 3.162-.599 1.083-.198 2.132-.01 3.142.56.276.16.513.344.716.556.372.41.445.822.222 1.223l-.27.323c-.005 0-.01.005-.015.01-.005.005-.01.01-.014.01-.025.024-.049.048-.073.063l-.126.096c-.73.493-1.871.938-3.428 1.339-1.557.4-2.741.899-3.558 1.488-.464.334-.788.652-.977.962-.324.497-.493.97-.517 1.425-.049.846.164 1.474.633 1.88.571.498 1.368.57 2.398.212 1.03-.352 1.838-.633 2.432-.84.634-.208 1.064-.358 1.291-.455.228-.096.706-.236 1.446-.415.406-.097.851-.126 1.334-.102.484.03.9.174 1.248.44.28.213.532.498.764.855.512.846.74 1.846.682 2.996-.01.29-.121.61-.329.947zm-8.254 1.948c-.739.087-1.552.15-2.432.203-.88.048-1.697.024-2.456-.078-.889-.11-1.562-.352-2.021-.72-.44-.347-.807-.864-1.112-1.546-.3-.681-.541-1.29-.716-1.821-.048-.136-.101-.305-.164-.508s-.14-.329-.232-.387c-.179-.096-.324-.077-.435.054-.111.13-.126.304-.048.517.227.657.464 1.304.715 1.952.247.643.551 1.198.904 1.657.769 1.005 2.045 1.527 3.83 1.57.764.02 1.532-.023 2.311-.14.778-.115 1.523-.241 2.234-.386l4.1-.99-4.478.623zM209.284 9.04c.435-.077.817-.135 1.156-.179.889-.106 1.653-.188 2.301-.251 1.19-.111 2.809-.198 4.864-.256 2.05-.063 3.568.246 4.545.923.45.309.87.773 1.272 1.377.043.063.125.203.251.415.126.213.213.339.266.368.179.15.334.145.469-.005.131-.15.14-.329.034-.537-.111-.188-.285-.459-.522-.807-.237-.347-.426-.594-.561-.748-.764-.812-1.741-1.31-2.935-1.489-1.194-.179-2.345-.246-3.452-.198-1.122.058-2.248.184-3.385.367-1.136.189-2.238.401-3.317.638-.217.049-.585.126-1.112.232-.522.106-.851.193-.981.261.3.005.672-.034 1.107-.111zM229.093 18.377c.102-.938.223-1.846.373-2.726.285-1.73.783-3.28 1.489-4.653.092-.17.188-.329.29-.478.101-.15.203-.31.304-.474.107-.17.262-.362.474-.58.213-.217.387-.41.537-.58 0-.005.005-.014.014-.024.141-.155.358-.343.668-.565.304-.223.546-.392.72-.493 1.528-.904 3.124-1.358 4.792-1.358.86 0 1.711.044 2.553.13.841.088 1.643.3 2.403.638.299.136.565.261.792.372.455.228.89.546 1.301.957.082.097.179.189.281.285.101.097.193.189.275.285.464.58.89 1.344 1.267 2.286.382.942.657 1.769.827 2.47.14.632.227 1.087.251 1.362.024.275.039.72.039 1.338 0 .938-.261 1.653-.783 2.16-.546.525-1.125 1.016-1.731 1.47l-.668.555c-.797.807-1.039 1.59-.72 2.344.319.754.715 1.575 1.199 2.46.053.11.106.207.16.29l.174.265c.072.111.135.208.183.285l.073.14c.014.034.043.073.077.126.431.696.822 1.343 1.18 1.933.358.59.691 1.27 1.001 2.03.396 1 .401 1.85.014 2.55-.135.252-.372.508-.696.76-.667.502-1.479.729-2.446.69-.967-.043-1.794-.3-2.495-.768-.237-.16-.353-.242-.344-.247.01-.004-.062-.077-.217-.222-.131-.111-.305-.3-.518-.56-.551-.667-1-1.47-1.353-2.412s-.658-1.816-.924-2.623c-.111-.33-.314-.851-.604-1.571s-.605-1.078-.938-1.078c-.382 0-.629.401-.74 1.199-.111.802-.193 1.401-.242 1.797-.072.59-.145 1.18-.208 1.76-.062.58-.159 1.145-.28 1.695-.261 1.19-.691 2.083-1.301 2.677-.865.856-1.851 1.097-2.949.72-1.146-.381-1.929-1.295-2.35-2.744-.42-1.45-.73-2.76-.923-3.929-.112-.623-.184-1.227-.223-1.817-.038-.584-.087-1.17-.15-1.744-.043-.338-.062-.909-.058-1.71.005-.803.005-1.387.005-1.755-.005-1.005.044-1.986.145-2.918zm4.473 15.651c-.131-.034-.252-.077-.363-.135-.527-.257-.962-.812-1.296-1.682-.333-.865-.604-1.826-.807-2.875-.199-1.028-.351-2.065-.455-3.107-.096-1.02-.169-1.807-.217-2.363-.015-.126-.029-.28-.039-.46-.01-.178-.024-.328-.048-.444-.097-.425-.281-.492-.566-.212-.106.106-.126.377-.058.816.068.44.111.745.131.919.091.806.203 1.667.343 2.575.14.908.304 1.744.488 2.503.213.884.556 1.9 1.035 3.044.478 1.145 1.213 1.663 2.209 1.551-.106-.053-.222-.096-.357-.13zm7.122-16.932c.517-1.184.309-2.14-.629-2.87-.377-.285-.861-.522-1.45-.71-.59-.189-1.006.057-1.238.739-.213.604-.29 1.522-.232 2.759.058 1.237.517 1.855 1.373 1.855.933.005 1.658-.589 2.176-1.773zm-1.959-9.732c.498.077.958.145 1.388.203.43.058.904.145 1.426.276 1.171.285 2.162.744 2.974 1.377l.251.26c.189.204.31.32.358.353.049.034.184.208.406.527.585.855 1.069 1.846 1.446 2.962.092.27.174.556.256.856.082.3.174.57.276.806.005-.521-.097-1.125-.305-1.802-.208-.681-.406-1.227-.59-1.652-.531-1.18-1.112-2.054-1.731-2.634-.768-.691-1.706-1.208-2.823-1.546-.237-.063-.871-.213-1.896-.45-1.025-.236-1.61-.28-1.755-.14-.314.329-.208.527.319.604zm9.579 25.36c.106-.411.145-.808.106-1.185-.058-.522-.266-1.15-.629-1.88-.357-.729-.672-1.314-.942-1.753-.097-.14-.184-.28-.257-.411-.072-.13-.159-.27-.241-.41-.063-.098-.145-.228-.237-.402-.097-.174-.213-.256-.358-.256-.416.01-.479.232-.189.657.295.43.498.72.605.88.304.468.648 1.014 1.025 1.643.377.623.643 1.203.802 1.744.16.56.184.986.078 1.27-.107.29-.213.585-.315.895.257-.121.44-.382.552-.793z"/>
    <path fill="#71B738" d="M88.689 62.315c-.174.28-.348.488-.517.614-.373.29-.822.546-1.35.768-.623.276-1.387.513-2.291.706-.91.193-1.697.348-2.374.469-.556.096-1.054.164-1.49.203-.434.038-.928.082-1.47.125-.488.044-1.03.053-1.624.03-.594-.025-1.097-.107-1.513-.247-.943-.314-1.62-.952-2.03-1.919-.412-.966-.707-1.894-.886-2.783l-.372-2.102c-.068-.362-.13-.85-.193-1.464s-.116-1.121-.155-1.517c-.044-.484-.087-.986-.121-1.508-.039-.522-.072-1.03-.111-1.532l-.107-3.189c.025-.71.054-1.595.078-2.658s.382-1.812 1.068-2.261c.261-.17.566-.3.914-.396.348-.097.682-.174 1.006-.223 1.122-.174 2.369-.343 3.747-.497 1.378-.155 2.64-.208 3.786-.15.754.038 1.383.082 1.886.13.502.049 1.107.218 1.803.517.483.218.923.585 1.31 1.112.082.125.14.222.165.275.246.532.357 1.044.338 1.527-.024.43-.15.725-.367.875-.218.15-.489.285-.818.391-.58.198-1.566.334-2.954.401-1.387.068-2.582.256-3.582.56-.054.02-.112.035-.17.05-.058.014-.116.033-.174.047-.053.02-.106.039-.16.063-.052.024-.106.044-.159.058-.329.121-.624.285-.88.498-.304.256-.556.59-.754 1-.198.41-.14.769.179 1.073.217.217.517.304.909.26.391-.043.71-.086.967-.135.856-.169 1.736-.333 2.64-.497.904-.164 1.774-.01 2.615.464.228.13.426.285.595.464.31.343.373.68.184 1.02l-.223.27c-.004 0-.01 0-.014.005-.005.004-.01.004-.014.004-.025.02-.044.04-.058.054l-.107.077c-.61.41-1.562.783-2.857 1.116-1.296.334-2.287.75-2.964 1.242-.387.275-.658.546-.813.797-.27.416-.41.812-.43 1.189-.039.706.135 1.227.527 1.566.474.415 1.141.473 2.002.178.856-.294 1.533-.526 2.026-.7.527-.174.89-.3 1.078-.382.189-.082.59-.198 1.204-.348.338-.077.71-.106 1.112-.082.401.024.75.145 1.04.367.231.174.444.416.633.715.425.706.619 1.537.57 2.499-.01.26-.106.526-.28.811zm-6.875 1.624c-.62.068-1.291.126-2.026.17-.735.043-1.417.018-2.046-.064-.74-.092-1.3-.294-1.687-.599-.368-.29-.672-.72-.924-1.29-.25-.57-.45-1.073-.594-1.517-.039-.116-.087-.257-.136-.426-.048-.169-.116-.275-.193-.323-.15-.078-.27-.063-.363.043-.091.106-.106.251-.038.435.188.546.386 1.087.594 1.624.208.536.46.995.755 1.382.638.836 1.702 1.27 3.19 1.31.634.018 1.277-.02 1.93-.117.648-.096 1.272-.203 1.862-.319l3.418-.826-3.742.517zm-6.91-19.56c.363-.063.682-.112.967-.15.74-.087 1.378-.16 1.915-.213.991-.092 2.34-.164 4.052-.213 1.711-.048 2.973.208 3.786.769.372.26.725.642 1.058 1.15.034.053.107.169.208.348.102.178.18.28.223.309.15.12.28.12.391-.005.112-.126.121-.275.024-.445-.091-.159-.236-.381-.435-.671-.198-.29-.353-.498-.469-.623-.633-.677-1.45-1.093-2.446-1.242-.996-.15-1.953-.203-2.877-.165-.933.049-1.876.15-2.819.31-.943.16-1.866.333-2.765.531-.18.039-.489.102-.924.194-.435.091-.71.159-.822.217.261-.005.57-.034.933-.102zM91.314 45.161c.15-.768.397-1.285.74-1.556.343-.27.87-.468 1.581-.59.6-.106 1.277-.159 2.036-.159l2.34.015c.106.014.222.02.353.014.13-.005.256.005.382.015l1.392.106c.111.005.227.015.353.034.126.02.242.029.348.039.74.077 1.702.207 2.882.391 1.18.184 2.069.45 2.664.807.571.348.996.696 1.267 1.044.271.348.556.797.851 1.348.222.425.416.865.575 1.334.16.463.305.937.445 1.415.068.227.116.426.145.59.048.217.097.42.14.614.044.193.087.4.126.623.145.87.232 1.493.261 1.865.029.372.044.986.044 1.841 0 1.517-.402 2.967-1.195 4.35-.266.468-.454.782-.57.936l-.537.716c-.169.227-.367.454-.599.686l-.184.183-.184.184c-.382.382-.938.817-1.668 1.3-1.039.686-2.345 1.222-3.916 1.614-1.572.386-2.964.58-4.173.58-1.02 0-1.828-.256-2.417-.759-.59-.507-1.06-1.174-1.408-2-.019-.034-.087-.208-.212-.522-.435-1.112-.793-2.518-1.069-4.224-.275-1.705-.483-3.145-.623-4.324-.02-.121-.03-.227-.034-.329-.005-.101-.015-.213-.025-.338l-.265-3.397-.034-2.387c0-.764.063-1.445.188-2.059zm16.294 14.637c-.27.266-.498.502-.677.7-.585.648-1.378 1.252-2.374 1.817-.996.566-1.914.981-2.76 1.257-.643.212-1.427.381-2.345.502-.919.121-1.727.082-2.418-.135-.638-.198-1.17-.58-1.6-1.136-.107-.14-.203-.27-.295-.391-.092-.12-.184-.26-.28-.41-.146-.218-.3-.271-.455-.17-.16.102-.174.261-.039.464.223.348.42.618.58.812l.653.686c.266.208.537.382.822.522.28.14.643.242 1.083.304.793.121 1.61.107 2.451-.038.842-.14 1.596-.343 2.263-.6.726-.275 1.359-.58 1.891-.922.532-.344 1.049-.71 1.552-1.107.358-.276.836-.74 1.436-1.392.599-.647.957-1.16 1.078-1.527-.106.242-.295.493-.566.764zm-5.69-15.497c.913.111 1.793.285 2.639.527.938.275 1.635.623 2.094 1.039.459.415.87.995 1.247 1.749.121.237.223.483.305.74.082.255.179.497.285.724-.024-.343-.169-.836-.425-1.483-.256-.643-.493-1.126-.706-1.445-.633-.904-1.475-1.508-2.524-1.812-1.049-.305-2.113-.527-3.201-.667l-1.958-.213c-1.073-.116-1.668-.12-1.77-.024-.12.116-.13.237-.024.372.058.087.252.14.58.16.33.019.58.033.755.048.885.077 1.789.174 2.703.285zm-1.383 9.157c.42 1.725.831 3.01 1.237 3.86.029.069.073.15.126.257-.014-.024.024.048.121.232.479.913.89 1.044 1.223.401.334-.643.585-1.222.745-1.725.532-1.662.57-3.3.121-4.924-.092-.324-.198-.609-.314-.86-.117-.251-.247-.512-.392-.778-.092-.17-.252-.396-.474-.686-.222-.29-.411-.498-.566-.629-.256-.212-.628-.444-1.121-.695-.494-.252-.871-.136-1.132.343-.12.222-.183.459-.188.705-.005.247-.01.498-.01.744-.005.778.203 2.03.624 3.755zM127.302 43.417c.512.053 1.02.314 1.518.787.261.257.517.605.769 1.044.449.807.768 1.865.957 3.17.169 1.203.193 2.503.077 3.9-.116 1.396-.285 2.619-.512 3.667-.097.45-.237.996-.426 1.643-.183.648-.367 1.165-.541 1.56-.237.523-.402.866-.484 1.025-.082.16-.295.488-.624.99l-.754.9-.014.014-.005.005-.754.633c-.116.077-.218.155-.315.222-.096.068-.198.14-.309.203-1.185.677-2.572 1.03-4.163 1.059h-.29c-1.828-.025-3.327-.479-4.487-1.363-.029-.024-.169-.135-.416-.338l-.377-.377c-.015-.02-.077-.082-.184-.194l-.454-.628c-.15-.217-.247-.372-.29-.464-.044-.087-.087-.164-.126-.232-.039-.067-.082-.145-.126-.236-.304-.628-.57-1.353-.798-2.165-.058-.198-.111-.392-.164-.575-.053-.184-.101-.377-.15-.575-.126-.517-.28-1.286-.454-2.305-.174-1.025-.319-2.093-.426-3.209-.106-1.12-.15-2.184-.13-3.189.019-1.01.164-1.754.44-2.242.328-.594.938-.894 1.818-.894.57 0 1.039.068 1.416.198s.721.43 1.03.894c.107.164.203.377.285.638.083.26.15.488.199.686.101.445.183 1.078.256 1.894.072.817.121 1.474.159 1.967.058.773.141 1.551.252 2.334.111.783.329 1.532.662 2.242.29.643.61 1.136.958 1.479.546.546 1.117.821 1.706.821.368 0 .672-.111.919-.328.247-.218.44-.455.575-.706.305-.565.518-1.189.643-1.875.054-.319.131-.88.228-1.686.101-.807.15-1.382.154-1.72l.15-2.363c.029-.44.068-.822.107-1.136.077-.754.164-1.464.256-2.13.092-.668.309-1.33.648-1.992l.401-.541c.024-.029.078-.077.15-.145.227-.217.493-.338.788-.372h.252v.005zm-13.775 8.103c.111 1.03.261 2.064.449 3.093.053.3.131.69.227 1.179.102.488.204.85.315 1.087.014-.367-.015-.787-.078-1.261-.062-.474-.116-.904-.154-1.285-.083-.75-.165-1.605-.247-2.571-.01-.068-.029-.334-.058-.797-.029-.47-.068-.972-.106-1.513-.039-.541-.078-1.039-.116-1.488-.039-.45-.063-.691-.083-.725-.135-.222-.299-.237-.488-.048-.082.091-.106.285-.068.575.039.29.068.502.078.642.106 1.044.217 2.078.329 3.112zm15.283 4.18c-.256 1.856-.933 3.484-2.031 4.89-.232.3-.43.527-.589.682-.16.154-.373.357-.648.599l-.866.725c.121-.04.271-.116.45-.232s.319-.203.416-.27c.981-.668 1.779-1.557 2.383-2.673.605-1.116 1.035-2.247 1.286-3.392.179-.827.31-1.648.392-2.474.082-.827.131-1.672.16-2.547.004-.193.014-.672.038-1.425.02-.759.01-1.184-.038-1.276-.112-.218-.266-.251-.469-.102-.083.068-.121.276-.107.629 0 .232 0 .463.005.695.005.232.005.464.005.691 0 1.803-.126 3.625-.387 5.48zM140.661 64.75c-1.112-.395-2.142-.903-3.095-1.512-.058-.033-.193-.125-.401-.27-.276-.208-.585-.464-.914-.769-.334-.304-.595-.594-.788-.87-.053-.067-.102-.13-.15-.183-.048-.058-.097-.12-.145-.193-.62-.841-1.115-1.767-1.47-2.75-.362-.995-.614-2.005-.759-3.034-.295-2.102-.029-3.982.798-5.65.077-.144.15-.284.232-.42.077-.135.164-.275.251-.42.068-.12.252-.372.552-.759.299-.386.507-.638.609-.744l1.039-.99c.107-.107.228-.208.363-.31.15-.116.213-.164.193-.145l1.402-.932c.339-.184.644-.334.905-.45 1.092-.454 2.258-.695 3.495-.734 1.238-.039 2.408.17 3.52.614.953.381 1.813 1 2.592 1.85.773.85 1.059 1.827.846 2.929-.145.72-.397 1.26-.754 1.613-.305.305-.566.484-.784.537-.217.058-.527.072-.923.048-.43-.014-.982-.096-1.654-.246-.672-.15-1.334-.107-1.997.135-.86.31-1.595.715-2.209 1.218l-.624.541c-.169.174-.261.266-.28.285-.02.02-.102.12-.247.319-.595.797-.764 1.59-.508 2.377.092.28.237.61.436.977.198.367.406.652.628.85.924.85 2.055 1.078 3.399.681l1.04-.348c.212-.067.536-.203.976-.41.083-.039.16-.078.228-.107.067-.029.145-.067.237-.11l1.353-.706c.078-.049.16-.092.237-.121.078-.03.155-.073.237-.12.247-.146.392-.228.431-.252l.13-.063.121-.063c.454-.222.914-.43 1.383-.633s.957-.058 1.47.43c.609.58.991 1.3 1.146 2.16.154.86.072 1.687-.247 2.48-.353.864-.919 1.603-1.697 2.217-.779.609-1.572 1.116-2.379 1.522-1.523.764-3.085 1.145-4.685 1.145-1.252-.019-2.427-.217-3.539-.613zm-3.781-17.236c.28-.294.57-.58.865-.86.295-.28.648-.517 1.059-.715 1.02-.483 2.272-.797 3.766-.947 1.272-.12 2.336.015 3.201.406.866.391 1.736.995 2.606 1.807.16.15.3.16.431.034.125-.13.135-.266.024-.41-.039-.054-.087-.097-.15-.136-.058-.039-.111-.077-.155-.12-.285-.276-.677-.586-1.17-.933-.493-.348-.914-.6-1.257-.745-1.156-.497-2.442-.647-3.858-.444-1.417.203-2.626.628-3.617 1.28-.566.368-.996.716-1.291 1.044-.266.295-.445.503-.537.628-.072.092-.159.213-.261.353-.101.145-.179.266-.222.372l.566-.614zm14.016 13.994c-.764.556-1.624 1.01-2.591 1.368-1.025.377-1.997.623-2.911.734-.914.111-1.905.194-2.973.242-.498.02-.605.188-.32.498.092.096.373.125.832.082.464-.044.779-.068.953-.082.628-.039 1.213-.102 1.75-.194 1.18-.174 2.2-.454 3.056-.85.86-.392 1.644-.908 2.359-1.546.218-.194.498-.546.851-1.059.353-.512.522-1.02.508-1.517-.247.99-.755 1.769-1.514 2.324zM156.771 59.416c.309-1.416.537-2.435.686-3.063.092-.43.223-.904.387-1.416.165-.512.315-.986.455-1.411.135-.426.338-.972.599-1.634.261-.662.494-1.203.692-1.623.217-.464.43-.923.643-1.387.213-.464.449-.918.706-1.367.024-.054.048-.102.072-.15l.078-.155.681-1.145c.179-.266.3-.44.358-.527.058-.087.194-.27.411-.546l1.165-1.058c.29-.189.59-.334.9-.435.691-.227 1.431-.285 2.214-.174 1.025.15 1.9.604 2.616 1.367.3.324.537.624.706.9.57.922 1.02 1.84 1.344 2.754l.425 1.203c.184.58.344 1.111.474 1.585.131.473.281 1.005.445 1.585.237.865.455 1.759.648 2.682.193.922.372 1.831.541 2.73.131.715.218 1.338.262 1.88.043.54.062 1.169.062 1.894 0 1.473-.527 2.512-1.585 3.111-1.103.629-2.128.43-3.08-.594-.242-.256-.455-.507-.639-.758-.183-.247-.382-.517-.589-.803l-1.011-1.425c-.029-.039-.058-.073-.077-.092-.02-.024-.044-.058-.078-.106l-.469-.575c-.435-.435-.802-.643-1.102-.624-.3.02-.633.232-1.015.633-.054.054-.092.102-.121.145-.029.044-.063.092-.112.145-.198.223-.464.58-.797 1.059-.334.483-.614.845-.851 1.092l-.643.676c-.199.208-.445.41-.74.604-.593.391-1.262.653-1.963.769-.716.12-1.383-.034-2.012-.474-.174-.12-.265-.184-.275-.198-.01-.015-.068-.073-.189-.179-.459-.401-.686-.98-.686-1.74-.005-.68.15-1.74.464-3.155zm2.601 5.35c-.179-.073-.498-.155-.948-.252-.449-.097-.778-.44-.991-1.024-.179-.493-.208-1.218-.077-2.165.126-.952.247-1.716.348-2.29.077-.382-.019-.522-.285-.426-.078.024-.15.237-.223.628-.087.479-.169.972-.246 1.479-.076.5-.113 1.006-.111 1.512 0 1.75.841 2.595 2.533 2.537zm6.228-20.803c-.402.024-.788.111-1.161.27-.319.131-.614.324-.894.58-.281.256-.498.479-.653.677l-.309.382c-.324.386-.619.797-.895 1.237-.275.44-.546.86-.827 1.275-.164.242-.198.416-.106.517.121.145.237.13.363-.043.12-.174.237-.348.348-.517.377-.6.856-1.3 1.426-2.102.571-.802 1.156-1.387 1.75-1.75.387-.226.788-.357 1.199-.381.411-.024.75-.077 1.006-.155-.43-.02-.846-.014-1.247.01zm.638 11.307c.237-.13.43-.396.575-.788.223-.59.305-1.348.247-2.27-.058-.924-.247-1.63-.58-2.117-.203-.28-.421-.425-.648-.425-.411 0-.687.304-.827.913-.14.609-.213 1.082-.213 1.41 0 .421.005.846.015 1.291.009.44.067.85.174 1.237.155.57.449.85.885.85.116.005.241-.028.372-.1zm6.634 8.514c.101-.101.183-.183.236-.246.276-.295.445-.652.518-1.073.072-.42.111-.846.111-1.27-.014-1.19-.189-2.6-.527-4.234-.338-1.633-.648-3.054-.923-4.262-.092-.391-.155-.662-.184-.811-.078-.358-.232-.426-.474-.213-.024.14.068.643.266 1.508s.329 1.41.382 1.642c.15.682.382 1.764.691 3.243.31 1.479.489 2.522.537 3.126.029.401.019.807-.039 1.218-.058.41-.198.768-.425 1.082.029-.038-.039.044-.213.247l-.222.251-.16.102c.044-.005.073-.01.087-.02.024-.02.048-.043.073-.077.072-.044.164-.111.266-.213zM177.257 44.306c.474-.387 1.025-.672 1.649-.855 1.155-.329 2.316-.484 3.486-.464 1.17.02 2.345.029 3.524.024l1.794.087c.266.039.547.068.842.077.295.01.585.039.87.078.923.13 1.886.343 2.877.637.991.295 1.716.894 2.18 1.808.271.546.402 1.217.402 2.02 0 .802-.237 1.43-.706 1.898-.431.426-.909.638-1.427.643-.517.005-1.034-.02-1.552-.068-.517-.048-1.01-.033-1.479.044-.469.077-.866.396-1.194.957-.295.502-.508 1.217-.634 2.145-.126.928-.227 1.687-.3 2.281-.024.188-.043.387-.058.6-.009.207-.029.415-.058.622l-.106 1.194c-.015.474-.092 1.29-.237 2.44s-.256 1.933-.334 2.344c-.125.614-.362 1.261-.701 1.947-.338.686-.884 1.03-1.639 1.03-.59 0-1.073-.228-1.455-.682-.377-.454-.662-.923-.851-1.416-.184-.459-.324-1.043-.416-1.759-.092-.628-.155-1.319-.184-2.068-.029-.749-.038-1.44-.038-2.073 0-.12.005-.207.019-.265.015-.058.019-.15.019-.266 0-.087 0-.179-.004-.266 0-.087-.005-.179-.005-.27l.038-1.03c0-.362.015-.71.039-1.053.024-.343.039-.691.039-1.049 0-.126.005-.217.014-.275.01-.063.02-.15.025-.256 0-.083-.001-.174-.005-.266-.005-.097 0-.184.005-.266.024-.275.033-.58.033-.903v-.933c0-.672-.092-1.063-.275-1.17-.184-.106-.464-.174-.832-.203-.256-.019-.435-.024-.537-.024-.101 0-.29-.029-.57-.091-.78-.155-1.503-.517-2.094-1.049-.599-.536-.894-1.256-.894-2.16.019-.749.256-1.31.73-1.696zm5.85 19.01c-.203-.46-.353-1-.459-1.634-.193-1.097-.251-2.474-.179-4.126.077-1.658.14-3.078.194-4.262.004-.184.019-.469.048-.865.029-.392-.102-.532-.392-.411-.101.039-.155.27-.164.696-.024.768-.053 1.691-.092 2.783-.039 1.087-.034 2.19.019 3.305.053 1.117.179 2.175.382 3.17.203.996.537 1.788 1.006 2.368-.044-.222-.164-.565-.363-1.024zM186.342 44c.106.04.691.073 1.76.102 1.068.029 2.045.164 2.925.41.546.155 1.059.383 1.538.682.478.3.831.696 1.059 1.198.077.17.145.348.203.537.058.188.12.372.178.546.039-.488-.067-.957-.323-1.411-.257-.45-.542-.802-.851-1.054-.121-.101-.276-.207-.45-.319-.498-.3-1.054-.521-1.668-.671-.614-.15-1.219-.261-1.808-.334-.199-.024-.673-.077-1.427-.15-.754-.072-1.17-.072-1.257.005-.222.208-.184.363.121.46zM197.182 50.119c.121-1.218.334-2.295.634-3.233.014-.048.029-.106.048-.169.019-.063.039-.125.063-.183.449-1.276 1.088-2.286 1.91-3.02.116-.102.299-.233.56-.397.489-.29.987-.435 1.49-.435.754 0 1.32.285 1.692.856.372.57.628 1.174.759 1.807.266 1.261.406 2.682.425 4.272.02 1.59.01 3.058-.029 4.416-.004.102-.014.179-.024.232-.009.058-.014.14-.014.26l-.305 4.466c-.034.382-.087.86-.155 1.43-.067.57-.135 1.025-.203 1.363-.14.71-.367 1.517-.677 2.42-.309.904-.942 1.359-1.895 1.359-.406 0-.715-.03-.928-.092-.213-.063-.489-.203-.822-.425-.58-.382-1.02-.943-1.32-1.677-.3-.735-.527-1.42-.687-2.059-.106-.43-.232-1.13-.372-2.092-.145-.962-.213-1.672-.213-2.121 0-.107-.005-.184-.019-.227-.015-.044-.019-.126-.019-.232l-.073-3.233c-.01-.967.053-2.063.174-3.286zm3.593 14.695c-.102-.063-.204-.14-.3-.223-.556-.435-.987-1.005-1.296-1.705-.174-.387-.343-.904-.498-1.547-.053-.212-.126-.517-.222-.923-.097-.406-.257-.488-.484-.256-.14.145-.053.633.266 1.46.319.826.537 1.343.643 1.55.203.387.503.788.904 1.194.402.406.832.623 1.291.652-.101-.067-.203-.14-.304-.202zm3.519-11.873c.015-1.59-.014-2.803-.077-3.634-.053-.74-.155-1.541-.3-2.397-.15-.86-.435-1.58-.86-2.16-.614-.821-.987-1.125-1.127-.918-.14.208-.155.368-.048.474.188.208.391.401.604.585.213.183.426.522.638 1.02.329.801.556 1.908.672 3.319.121 1.41.184 2.56.194 3.45 0 .319-.01.986-.034 2.01-.024 1.02-.015 1.619.024 1.793.198-.773.305-1.952.314-3.542zM216.024 64.558c-.72-.02-1.368-.107-1.958-.266-.672-.174-1.243-.382-1.707-.633-.464-.247-.972-.59-1.528-1.02-.159-.12-.367-.314-.623-.585-.257-.27-.45-.492-.571-.662-.174-.222-.348-.454-.522-.695-.174-.242-.329-.493-.464-.769-.15-.3-.286-.56-.402-.787-.116-.227-.241-.522-.362-.894-.145-.425-.247-.73-.31-.923-.062-.194-.135-.517-.222-.981-.121-.566-.189-1.034-.213-1.416-.024-.382-.034-.86-.034-1.43 0-.624.078-1.33.237-2.107.16-.778.373-1.435.643-1.967.083-.169.223-.44.426-.812l.503-.739c.159-.222.406-.507.735-.855.333-.343.594-.595.788-.744l1.46-1.02c1.199-.71 2.587-1.174 4.173-1.392.294-.038.676-.062 1.141-.067.464-.005.851.01 1.155.043.208.03.392.053.551.068.16.014.339.038.537.077 1.335.252 2.514.725 3.534 1.426.779.54 1.441 1.26 1.983 2.164.541.904.947 1.808 1.223 2.721.251.86.416 1.595.498 2.213.077.619.121 1.392.121 2.32 0 .618-.097 1.314-.29 2.092-.194.778-.426 1.44-.701 1.99-.184.378-.334.658-.445.832-.087.13-.169.26-.247.382-.077.12-.159.246-.251.362l-.575.7c-.184.237-.392.455-.624.653-.227.198-.455.382-.682.565-.019.015-.029.02-.039.024-.004.005-.014.015-.029.025 0 .005 0 .01-.004.01l-.005.004c-.198.17-.44.334-.721.493-.28.16-.536.295-.759.406-1.494.749-3.114 1.145-4.864 1.189h-.556v.005zm-6.996-14.512c.522-1.169 1.194-2.087 2.011-2.759l.813-.686c.145-.125.285-.241.42-.352.136-.112.266-.233.402-.353-.353.154-.745.406-1.175.749-.431.348-.789.662-1.064.942l-.484.502c-.454.508-.855 1.107-1.204 1.798-.783 1.56-1.068 3.165-.85 4.813.217 1.648.623 3.266 1.228 4.851.043.121.135.372.275.764.14.391.232.614.281.672.096.125.208.154.338.077.126-.078.164-.203.111-.372-.038-.106-.087-.223-.145-.353-.058-.13-.106-.251-.145-.367-.372-.933-.73-1.943-1.073-3.03-.346-1.08-.521-2.21-.518-3.344-.004-1.203.257-2.387.779-3.551zm6.174 5.306c.256.682.556 1.31.9 1.875l.778 1.03c.276.28.643.555 1.098.826.454.27.87.178 1.247-.276l.068-.077c.101-.145.198-.348.285-.614.329-.99.348-2.392.053-4.194-.295-1.807-.686-3.204-1.175-4.194l-.391-.624-.131-.164c-.102-.106-.227-.203-.382-.3-.488-.29-.933-.256-1.325.107-.396.362-.691.768-.889 1.217-.218.503-.358.996-.421 1.484s-.097 1.024-.097 1.609c0 .846.126 1.61.382 2.295zm10.25-.285c0 1.04-.227 2.102-.686 3.194-.735 1.745-1.886 3.093-3.443 4.045-.145.087-.415.251-.817.497-.401.242-.638.402-.725.484.474-.126 1.02-.387 1.644-.793.624-.406 1.122-.763 1.494-1.068l.899-.937c1.18-1.474 1.842-2.962 1.978-4.465.135-1.503.048-3.15-.266-4.948-.024-.121-.053-.305-.087-.556-.034-.251-.097-.401-.174-.454-.198-.13-.329-.087-.397.12-.024.078.005.339.102.779.092.44.15.71.164.816.208 1.15.314 2.252.314 3.286zM229.127 55.14c.005-.14.015-.315.034-.517.005-.034.005-.213.005-.527 0-.106.005-.184.014-.242.01-.053.02-.13.025-.222.014-.493.043-.971.087-1.425.048-.46.101-.928.159-1.416.092-.778.237-1.62.435-2.532.199-.914.469-1.716.813-2.402.275-.541.551-.952.831-1.237.203-.193.387-.353.556-.473.518-.373 1.093-.542 1.726-.508.634.034 1.219.184 1.751.464.367.188.759.478 1.175.86.415.382.749.74 1 1.058l.465.57.111.14c.029.044.063.093.101.146l.445.59c.039.057.077.105.106.144.029.039.068.087.107.14l.86 1.218c.213.314.595.826 1.146 1.537.552.71.982 1.068 1.296 1.068.266 0 .43-.33.498-.986.068-.657.107-1.087.111-1.286l.034-.671c0-.082.005-.14.015-.165.009-.024.019-.077.024-.154v-.358c.024-.208.039-.42.053-.642.015-.223.034-.44.068-.658.077-.517.169-.995.285-1.435.116-.44.339-.83.667-1.174l.382-.324c.895-.58 1.78-.55 2.66.087.343.252.594.575.744.976.15.401.266.803.339 1.213.058.372.096.604.111.706.034.26.077.637.13 1.13.054.493.078.865.078 1.112 0 .101.005.174.014.222.01.048.015.106.02.174l.145 3.523c-.01 1.474-.025 2.928-.054 4.358-.024 1.43-.169 2.851-.43 4.267-.179.995-.454 1.798-.827 2.411-.285.474-.628.836-1.03 1.083-.401.246-.913.285-1.532.11-.184-.047-.353-.115-.508-.202-.155-.087-.305-.17-.454-.256-.175-.087-.382-.227-.629-.425-.247-.194-.44-.363-.575-.508l-.895-.923c-.039-.038-.068-.067-.082-.087-.015-.02-.044-.053-.082-.106-.034-.039-.063-.072-.087-.092-.024-.024-.053-.053-.082-.092l-.469-.594c-.199-.275-.402-.55-.61-.822-.208-.27-.396-.555-.57-.85-.053-.077-.102-.15-.145-.217-.044-.063-.087-.14-.131-.223l-1.044-1.836c-.276-.556-.561-1.111-.851-1.667-.29-.556-.561-1.121-.812-1.691-.025-.049-.049-.087-.068-.111-.019-.024-.039-.063-.058-.111l-.232-.484c-.087-.164-.131-.241-.126-.232l-.251-.464c-.353-.604-.624-.826-.817-.671-.194.154-.286.555-.286 1.208 0 1.304.208 2.938.619 4.904.411 1.967.459 3.48.14 4.538-.116.396-.266.715-.454.966-.503.667-1.248.952-2.229.86-.986-.091-1.789-.575-2.418-1.45-.633-.869-1.049-2.038-1.242-3.503-.194-1.464-.29-2.773-.29-3.928v-.884h-.015zm.566.662c-.015.73-.015 1.266.005 1.604.058 1.174.237 2.31.536 3.402.3 1.092.856 2.058 1.673 2.894.039.044.078.082.112.107l.111.101.43.43c.155.174.295.203.416.087.121-.116.106-.26-.048-.425-.165-.174-.295-.305-.402-.392-.101-.091-.256-.246-.454-.463-.15-.155-.218-.228-.203-.218-.324-.41-.581-.778-.779-1.111-.198-.329-.387-.798-.561-1.392-.319-1.049-.493-2.054-.522-3.02-.029-.966-.077-2.01-.13-3.131-.112.285-.17.792-.184 1.527zm10.052-5.441c-.203-.32-.339-.537-.421-.653-.372-.57-.715-1.082-1.025-1.541-.309-.46-.677-.957-1.102-1.498-.068-.082-.14-.174-.223-.27-.13-.146-.256-.286-.372-.421-.116-.135-.237-.266-.372-.401-.208-.184-.392-.348-.556-.483-.793-.6-1.475-.827-2.045-.687-.571.14-1.18.489-1.828 1.044-.077.068-.174.15-.276.256-.091.126-.087.247.025.353.111.106.241.097.401-.039.043-.038.082-.082.116-.12.034-.04.077-.087.13-.136.199-.164.436-.352.711-.575.276-.222.595-.343.962-.362.542-.024 1.059.164 1.552.575.494.41.847.725 1.069.952l1.832 2.3c.145.198.291.396.436.6.145.202.285.4.435.598.087.121.241.32.454.61.218.284.373.463.464.54-.048-.11-.164-.324-.367-.642zm6.276 13.636c.203-.12.367-.222.498-.319.435-.324.73-.88.88-1.677.15-.797.261-1.473.329-2.03.091-.71.174-1.449.246-2.227.073-.778.136-1.527.194-2.252.009-.135.033-.4.077-.787.043-.387.024-.624-.053-.696-.087-.082-.194-.097-.31-.034-.077.034-.121.135-.125.3l-.131 2.324c-.039.657-.111 1.667-.213 3.035-.101 1.367-.241 2.329-.411 2.884-.13.416-.333.759-.609 1.03-.193.193-.382.338-.561.43-.179.091-.309.178-.387.256.179-.039.373-.116.576-.237z"/>
</svg>